<mxfile host="app.diagrams.net" modified="2024-02-23T08:14:18.107Z" agent="Mozilla/5.0 (Windows NT 10.0; Win64; x64) AppleWebKit/537.36 (KHTML, like Gecko) Chrome/122.0.0.0 Safari/537.36" etag="mn0sQvJb1vRt3o2xmBDE" version="23.1.6" type="device">
  <diagram name="Страница — 1" id="CcfzWCn10rCv8w71ZSUx">
    <mxGraphModel dx="1075" dy="442" grid="1" gridSize="10" guides="1" tooltips="1" connect="1" arrows="1" fold="1" page="1" pageScale="1" pageWidth="827" pageHeight="1169" math="0" shadow="0">
      <root>
        <mxCell id="0" />
        <mxCell id="1" parent="0" />
        <mxCell id="6pSqtr_-12MOgZffBn_E-2" value="" style="rounded=0;whiteSpace=wrap;html=1;" vertex="1" parent="1">
          <mxGeometry x="40" y="80" width="280" height="160" as="geometry" />
        </mxCell>
        <mxCell id="6pSqtr_-12MOgZffBn_E-3" value="" style="rounded=0;whiteSpace=wrap;html=1;" vertex="1" parent="1">
          <mxGeometry x="40" y="80" width="280" height="30" as="geometry" />
        </mxCell>
        <mxCell id="6pSqtr_-12MOgZffBn_E-4" value="main" style="text;html=1;align=center;verticalAlign=middle;whiteSpace=wrap;rounded=0;" vertex="1" parent="1">
          <mxGeometry x="150" y="50" width="60" height="30" as="geometry" />
        </mxCell>
        <mxCell id="6pSqtr_-12MOgZffBn_E-6" value="" style="rounded=0;whiteSpace=wrap;html=1;" vertex="1" parent="1">
          <mxGeometry x="40" y="110" width="280" height="20" as="geometry" />
        </mxCell>
        <mxCell id="6pSqtr_-12MOgZffBn_E-7" value="" style="rounded=0;whiteSpace=wrap;html=1;" vertex="1" parent="1">
          <mxGeometry x="56" y="140" width="70" height="40" as="geometry" />
        </mxCell>
        <mxCell id="6pSqtr_-12MOgZffBn_E-8" value="" style="rounded=0;whiteSpace=wrap;html=1;" vertex="1" parent="1">
          <mxGeometry x="56" y="200" width="70" height="40" as="geometry" />
        </mxCell>
        <mxCell id="6pSqtr_-12MOgZffBn_E-9" value="" style="rounded=0;whiteSpace=wrap;html=1;" vertex="1" parent="1">
          <mxGeometry x="146" y="140" width="70" height="40" as="geometry" />
        </mxCell>
        <mxCell id="6pSqtr_-12MOgZffBn_E-10" value="" style="rounded=0;whiteSpace=wrap;html=1;" vertex="1" parent="1">
          <mxGeometry x="236" y="140" width="70" height="40" as="geometry" />
        </mxCell>
        <mxCell id="6pSqtr_-12MOgZffBn_E-11" value="" style="rounded=0;whiteSpace=wrap;html=1;" vertex="1" parent="1">
          <mxGeometry x="146" y="200" width="70" height="40" as="geometry" />
        </mxCell>
        <mxCell id="6pSqtr_-12MOgZffBn_E-12" value="" style="rounded=0;whiteSpace=wrap;html=1;" vertex="1" parent="1">
          <mxGeometry x="236" y="200" width="70" height="40" as="geometry" />
        </mxCell>
        <mxCell id="6pSqtr_-12MOgZffBn_E-15" value="" style="endArrow=none;html=1;rounded=0;" edge="1" parent="1">
          <mxGeometry width="50" height="50" relative="1" as="geometry">
            <mxPoint x="56" y="190" as="sourcePoint" />
            <mxPoint x="306" y="190" as="targetPoint" />
          </mxGeometry>
        </mxCell>
        <mxCell id="6pSqtr_-12MOgZffBn_E-16" value="" style="ellipse;whiteSpace=wrap;html=1;aspect=fixed;" vertex="1" parent="1">
          <mxGeometry x="290" y="85" width="20" height="20" as="geometry" />
        </mxCell>
        <mxCell id="6pSqtr_-12MOgZffBn_E-17" value="" style="rounded=1;whiteSpace=wrap;html=1;" vertex="1" parent="1">
          <mxGeometry x="92" y="85" width="148" height="20" as="geometry" />
        </mxCell>
        <mxCell id="6pSqtr_-12MOgZffBn_E-19" value="" style="rounded=0;whiteSpace=wrap;html=1;" vertex="1" parent="1">
          <mxGeometry x="450" y="80" width="280" height="160" as="geometry" />
        </mxCell>
        <mxCell id="6pSqtr_-12MOgZffBn_E-20" value="" style="rounded=0;whiteSpace=wrap;html=1;" vertex="1" parent="1">
          <mxGeometry x="450" y="80" width="280" height="30" as="geometry" />
        </mxCell>
        <mxCell id="6pSqtr_-12MOgZffBn_E-21" value="Course" style="text;html=1;align=center;verticalAlign=middle;whiteSpace=wrap;rounded=0;" vertex="1" parent="1">
          <mxGeometry x="560" y="50" width="60" height="30" as="geometry" />
        </mxCell>
        <mxCell id="6pSqtr_-12MOgZffBn_E-22" value="" style="rounded=0;whiteSpace=wrap;html=1;" vertex="1" parent="1">
          <mxGeometry x="450" y="110" width="280" height="20" as="geometry" />
        </mxCell>
        <mxCell id="6pSqtr_-12MOgZffBn_E-28" value="" style="rounded=0;whiteSpace=wrap;html=1;" vertex="1" parent="1">
          <mxGeometry x="646" y="130" width="84" height="110" as="geometry" />
        </mxCell>
        <mxCell id="6pSqtr_-12MOgZffBn_E-30" value="" style="ellipse;whiteSpace=wrap;html=1;aspect=fixed;" vertex="1" parent="1">
          <mxGeometry x="700" y="85" width="20" height="20" as="geometry" />
        </mxCell>
        <mxCell id="6pSqtr_-12MOgZffBn_E-31" value="" style="rounded=1;whiteSpace=wrap;html=1;" vertex="1" parent="1">
          <mxGeometry x="502" y="85" width="148" height="20" as="geometry" />
        </mxCell>
        <mxCell id="6pSqtr_-12MOgZffBn_E-32" value="" style="rounded=0;whiteSpace=wrap;html=1;" vertex="1" parent="1">
          <mxGeometry x="660" y="140" width="53" height="60" as="geometry" />
        </mxCell>
        <mxCell id="6pSqtr_-12MOgZffBn_E-33" value="" style="rounded=0;whiteSpace=wrap;html=1;" vertex="1" parent="1">
          <mxGeometry x="660" y="210" width="53" height="10" as="geometry" />
        </mxCell>
        <mxCell id="6pSqtr_-12MOgZffBn_E-35" value="Text" style="text;html=1;align=center;verticalAlign=middle;whiteSpace=wrap;rounded=0;" vertex="1" parent="1">
          <mxGeometry x="465" y="140" width="60" height="30" as="geometry" />
        </mxCell>
        <mxCell id="6pSqtr_-12MOgZffBn_E-37" value="" style="rounded=0;whiteSpace=wrap;html=1;" vertex="1" parent="1">
          <mxGeometry x="465" y="170" width="50" height="20" as="geometry" />
        </mxCell>
        <mxCell id="6pSqtr_-12MOgZffBn_E-38" value="Text" style="text;html=1;align=center;verticalAlign=middle;whiteSpace=wrap;rounded=0;" vertex="1" parent="1">
          <mxGeometry x="465" y="200" width="60" height="30" as="geometry" />
        </mxCell>
        <mxCell id="6pSqtr_-12MOgZffBn_E-39" value="" style="rounded=0;whiteSpace=wrap;html=1;" vertex="1" parent="1">
          <mxGeometry x="41" y="320" width="280" height="160" as="geometry" />
        </mxCell>
        <mxCell id="6pSqtr_-12MOgZffBn_E-40" value="" style="rounded=0;whiteSpace=wrap;html=1;" vertex="1" parent="1">
          <mxGeometry x="41" y="320" width="280" height="30" as="geometry" />
        </mxCell>
        <mxCell id="6pSqtr_-12MOgZffBn_E-41" value="Search" style="text;html=1;align=center;verticalAlign=middle;whiteSpace=wrap;rounded=0;" vertex="1" parent="1">
          <mxGeometry x="151" y="290" width="60" height="30" as="geometry" />
        </mxCell>
        <mxCell id="6pSqtr_-12MOgZffBn_E-42" value="" style="rounded=0;whiteSpace=wrap;html=1;" vertex="1" parent="1">
          <mxGeometry x="41" y="350" width="280" height="20" as="geometry" />
        </mxCell>
        <mxCell id="6pSqtr_-12MOgZffBn_E-44" value="" style="ellipse;whiteSpace=wrap;html=1;aspect=fixed;" vertex="1" parent="1">
          <mxGeometry x="291" y="325" width="20" height="20" as="geometry" />
        </mxCell>
        <mxCell id="6pSqtr_-12MOgZffBn_E-45" value="" style="rounded=1;whiteSpace=wrap;html=1;" vertex="1" parent="1">
          <mxGeometry x="93" y="325" width="148" height="20" as="geometry" />
        </mxCell>
        <mxCell id="6pSqtr_-12MOgZffBn_E-51" value="" style="rounded=0;whiteSpace=wrap;html=1;" vertex="1" parent="1">
          <mxGeometry x="41" y="370" width="99" height="110" as="geometry" />
        </mxCell>
        <mxCell id="6pSqtr_-12MOgZffBn_E-53" value="" style="rounded=0;whiteSpace=wrap;html=1;" vertex="1" parent="1">
          <mxGeometry x="151" y="380" width="70" height="40" as="geometry" />
        </mxCell>
        <mxCell id="6pSqtr_-12MOgZffBn_E-54" value="" style="rounded=0;whiteSpace=wrap;html=1;" vertex="1" parent="1">
          <mxGeometry x="151" y="430" width="70" height="40" as="geometry" />
        </mxCell>
        <mxCell id="6pSqtr_-12MOgZffBn_E-56" value="Text" style="text;html=1;align=center;verticalAlign=middle;whiteSpace=wrap;rounded=0;" vertex="1" parent="1">
          <mxGeometry x="221" y="390" width="60" height="30" as="geometry" />
        </mxCell>
        <mxCell id="6pSqtr_-12MOgZffBn_E-57" value="Text" style="text;html=1;align=center;verticalAlign=middle;whiteSpace=wrap;rounded=0;" vertex="1" parent="1">
          <mxGeometry x="221" y="440" width="60" height="30" as="geometry" />
        </mxCell>
        <mxCell id="6pSqtr_-12MOgZffBn_E-58" value="" style="rounded=0;whiteSpace=wrap;html=1;" vertex="1" parent="1">
          <mxGeometry x="41" y="370" width="99" height="20" as="geometry" />
        </mxCell>
        <mxCell id="6pSqtr_-12MOgZffBn_E-59" value="" style="rounded=0;whiteSpace=wrap;html=1;" vertex="1" parent="1">
          <mxGeometry x="41" y="390" width="99" height="20" as="geometry" />
        </mxCell>
        <mxCell id="6pSqtr_-12MOgZffBn_E-60" value="" style="rounded=0;whiteSpace=wrap;html=1;" vertex="1" parent="1">
          <mxGeometry x="41" y="410" width="99" height="20" as="geometry" />
        </mxCell>
        <mxCell id="6pSqtr_-12MOgZffBn_E-61" value="" style="rounded=0;whiteSpace=wrap;html=1;" vertex="1" parent="1">
          <mxGeometry x="41" y="430" width="99" height="20" as="geometry" />
        </mxCell>
        <mxCell id="6pSqtr_-12MOgZffBn_E-62" value="" style="rounded=0;whiteSpace=wrap;html=1;" vertex="1" parent="1">
          <mxGeometry x="41" y="450" width="99" height="20" as="geometry" />
        </mxCell>
        <mxCell id="6pSqtr_-12MOgZffBn_E-63" value="" style="rounded=0;whiteSpace=wrap;html=1;" vertex="1" parent="1">
          <mxGeometry x="450" y="320" width="280" height="160" as="geometry" />
        </mxCell>
        <mxCell id="6pSqtr_-12MOgZffBn_E-64" value="" style="rounded=0;whiteSpace=wrap;html=1;" vertex="1" parent="1">
          <mxGeometry x="450" y="320" width="280" height="30" as="geometry" />
        </mxCell>
        <mxCell id="6pSqtr_-12MOgZffBn_E-65" value="Profile" style="text;html=1;align=center;verticalAlign=middle;whiteSpace=wrap;rounded=0;" vertex="1" parent="1">
          <mxGeometry x="560" y="290" width="60" height="30" as="geometry" />
        </mxCell>
        <mxCell id="6pSqtr_-12MOgZffBn_E-66" value="" style="rounded=0;whiteSpace=wrap;html=1;" vertex="1" parent="1">
          <mxGeometry x="450" y="350" width="280" height="20" as="geometry" />
        </mxCell>
        <mxCell id="6pSqtr_-12MOgZffBn_E-67" value="" style="ellipse;whiteSpace=wrap;html=1;aspect=fixed;" vertex="1" parent="1">
          <mxGeometry x="700" y="325" width="20" height="20" as="geometry" />
        </mxCell>
        <mxCell id="6pSqtr_-12MOgZffBn_E-68" value="" style="rounded=1;whiteSpace=wrap;html=1;" vertex="1" parent="1">
          <mxGeometry x="502" y="325" width="148" height="20" as="geometry" />
        </mxCell>
        <mxCell id="6pSqtr_-12MOgZffBn_E-69" value="" style="rounded=0;whiteSpace=wrap;html=1;" vertex="1" parent="1">
          <mxGeometry x="450" y="370" width="100" height="110" as="geometry" />
        </mxCell>
        <mxCell id="6pSqtr_-12MOgZffBn_E-72" value="Text" style="text;html=1;align=center;verticalAlign=middle;whiteSpace=wrap;rounded=0;" vertex="1" parent="1">
          <mxGeometry x="560" y="380" width="40" height="20" as="geometry" />
        </mxCell>
        <mxCell id="6pSqtr_-12MOgZffBn_E-73" value="Text" style="text;html=1;align=center;verticalAlign=middle;whiteSpace=wrap;rounded=0;" vertex="1" parent="1">
          <mxGeometry x="560" y="400" width="40" height="20" as="geometry" />
        </mxCell>
        <mxCell id="6pSqtr_-12MOgZffBn_E-79" value="" style="ellipse;whiteSpace=wrap;html=1;aspect=fixed;" vertex="1" parent="1">
          <mxGeometry x="475" y="380" width="50" height="50" as="geometry" />
        </mxCell>
        <mxCell id="6pSqtr_-12MOgZffBn_E-82" value="" style="rounded=0;whiteSpace=wrap;html=1;" vertex="1" parent="1">
          <mxGeometry x="450" y="460" width="100" height="20" as="geometry" />
        </mxCell>
        <mxCell id="6pSqtr_-12MOgZffBn_E-83" value="" style="rounded=0;whiteSpace=wrap;html=1;" vertex="1" parent="1">
          <mxGeometry x="450" y="440" width="100" height="20" as="geometry" />
        </mxCell>
        <mxCell id="6pSqtr_-12MOgZffBn_E-84" value="" style="rounded=0;whiteSpace=wrap;html=1;" vertex="1" parent="1">
          <mxGeometry x="560" y="420" width="60" height="20" as="geometry" />
        </mxCell>
        <mxCell id="6pSqtr_-12MOgZffBn_E-85" value="" style="rounded=0;whiteSpace=wrap;html=1;" vertex="1" parent="1">
          <mxGeometry x="560" y="460" width="60" height="20" as="geometry" />
        </mxCell>
        <mxCell id="6pSqtr_-12MOgZffBn_E-86" value="Text" style="text;html=1;align=center;verticalAlign=middle;whiteSpace=wrap;rounded=0;" vertex="1" parent="1">
          <mxGeometry x="560" y="440" width="40" height="20" as="geometry" />
        </mxCell>
        <mxCell id="6pSqtr_-12MOgZffBn_E-87" value="" style="rounded=0;whiteSpace=wrap;html=1;" vertex="1" parent="1">
          <mxGeometry x="40" y="550" width="280" height="160" as="geometry" />
        </mxCell>
        <mxCell id="6pSqtr_-12MOgZffBn_E-88" value="" style="rounded=0;whiteSpace=wrap;html=1;" vertex="1" parent="1">
          <mxGeometry x="40" y="550" width="280" height="30" as="geometry" />
        </mxCell>
        <mxCell id="6pSqtr_-12MOgZffBn_E-89" value="My education" style="text;html=1;align=center;verticalAlign=middle;whiteSpace=wrap;rounded=0;" vertex="1" parent="1">
          <mxGeometry x="150" y="520" width="60" height="30" as="geometry" />
        </mxCell>
        <mxCell id="6pSqtr_-12MOgZffBn_E-90" value="" style="rounded=0;whiteSpace=wrap;html=1;" vertex="1" parent="1">
          <mxGeometry x="40" y="580" width="280" height="20" as="geometry" />
        </mxCell>
        <mxCell id="6pSqtr_-12MOgZffBn_E-91" value="" style="ellipse;whiteSpace=wrap;html=1;aspect=fixed;" vertex="1" parent="1">
          <mxGeometry x="290" y="555" width="20" height="20" as="geometry" />
        </mxCell>
        <mxCell id="6pSqtr_-12MOgZffBn_E-92" value="" style="rounded=1;whiteSpace=wrap;html=1;" vertex="1" parent="1">
          <mxGeometry x="92" y="555" width="148" height="20" as="geometry" />
        </mxCell>
        <mxCell id="6pSqtr_-12MOgZffBn_E-94" value="" style="rounded=0;whiteSpace=wrap;html=1;" vertex="1" parent="1">
          <mxGeometry x="55.5" y="610" width="70" height="40" as="geometry" />
        </mxCell>
        <mxCell id="6pSqtr_-12MOgZffBn_E-95" value="" style="rounded=0;whiteSpace=wrap;html=1;" vertex="1" parent="1">
          <mxGeometry x="141" y="610" width="70" height="40" as="geometry" />
        </mxCell>
        <mxCell id="6pSqtr_-12MOgZffBn_E-96" value="Text" style="text;html=1;align=center;verticalAlign=middle;whiteSpace=wrap;rounded=0;" vertex="1" parent="1">
          <mxGeometry x="55.5" y="650" width="60" height="30" as="geometry" />
        </mxCell>
        <mxCell id="6pSqtr_-12MOgZffBn_E-97" value="Text" style="text;html=1;align=center;verticalAlign=middle;whiteSpace=wrap;rounded=0;" vertex="1" parent="1">
          <mxGeometry x="140" y="650" width="60" height="30" as="geometry" />
        </mxCell>
        <mxCell id="6pSqtr_-12MOgZffBn_E-98" value="" style="rounded=0;whiteSpace=wrap;html=1;" vertex="1" parent="1">
          <mxGeometry x="40" y="580" width="50" height="20" as="geometry" />
        </mxCell>
        <mxCell id="6pSqtr_-12MOgZffBn_E-103" value="" style="rounded=0;whiteSpace=wrap;html=1;" vertex="1" parent="1">
          <mxGeometry x="90" y="580" width="50" height="20" as="geometry" />
        </mxCell>
        <mxCell id="6pSqtr_-12MOgZffBn_E-104" value="" style="rounded=0;whiteSpace=wrap;html=1;" vertex="1" parent="1">
          <mxGeometry x="240" y="580" width="80" height="20" as="geometry" />
        </mxCell>
        <mxCell id="6pSqtr_-12MOgZffBn_E-105" value="" style="rounded=0;whiteSpace=wrap;html=1;" vertex="1" parent="1">
          <mxGeometry x="140" y="580" width="50" height="20" as="geometry" />
        </mxCell>
        <mxCell id="6pSqtr_-12MOgZffBn_E-106" value="" style="rounded=0;whiteSpace=wrap;html=1;" vertex="1" parent="1">
          <mxGeometry x="190" y="580" width="50" height="20" as="geometry" />
        </mxCell>
        <mxCell id="6pSqtr_-12MOgZffBn_E-108" value="" style="rounded=0;whiteSpace=wrap;html=1;" vertex="1" parent="1">
          <mxGeometry x="56" y="680" width="70" height="30" as="geometry" />
        </mxCell>
        <mxCell id="6pSqtr_-12MOgZffBn_E-110" value="" style="rounded=0;whiteSpace=wrap;html=1;" vertex="1" parent="1">
          <mxGeometry x="231" y="610" width="70" height="40" as="geometry" />
        </mxCell>
        <mxCell id="6pSqtr_-12MOgZffBn_E-111" value="Text" style="text;html=1;align=center;verticalAlign=middle;whiteSpace=wrap;rounded=0;" vertex="1" parent="1">
          <mxGeometry x="230" y="650" width="60" height="30" as="geometry" />
        </mxCell>
        <mxCell id="6pSqtr_-12MOgZffBn_E-113" value="" style="rounded=0;whiteSpace=wrap;html=1;" vertex="1" parent="1">
          <mxGeometry x="450" y="570" width="280" height="30" as="geometry" />
        </mxCell>
        <mxCell id="6pSqtr_-12MOgZffBn_E-114" value="" style="ellipse;whiteSpace=wrap;html=1;aspect=fixed;" vertex="1" parent="1">
          <mxGeometry x="700" y="575" width="20" height="20" as="geometry" />
        </mxCell>
        <mxCell id="6pSqtr_-12MOgZffBn_E-115" value="" style="rounded=1;whiteSpace=wrap;html=1;" vertex="1" parent="1">
          <mxGeometry x="482" y="575" width="148" height="20" as="geometry" />
        </mxCell>
        <mxCell id="6pSqtr_-12MOgZffBn_E-116" value="Header" style="text;html=1;align=center;verticalAlign=middle;whiteSpace=wrap;rounded=0;" vertex="1" parent="1">
          <mxGeometry x="570" y="540" width="60" height="30" as="geometry" />
        </mxCell>
        <mxCell id="6pSqtr_-12MOgZffBn_E-117" value="" style="rounded=0;whiteSpace=wrap;html=1;" vertex="1" parent="1">
          <mxGeometry x="455" y="575" width="20" height="20" as="geometry" />
        </mxCell>
        <mxCell id="6pSqtr_-12MOgZffBn_E-119" value="" style="rounded=0;whiteSpace=wrap;html=1;" vertex="1" parent="1">
          <mxGeometry x="640" y="575" width="20" height="20" as="geometry" />
        </mxCell>
        <mxCell id="6pSqtr_-12MOgZffBn_E-120" value="" style="rounded=0;whiteSpace=wrap;html=1;" vertex="1" parent="1">
          <mxGeometry x="670" y="575" width="20" height="20" as="geometry" />
        </mxCell>
        <mxCell id="6pSqtr_-12MOgZffBn_E-121" value="Logo" style="text;html=1;align=center;verticalAlign=middle;whiteSpace=wrap;rounded=0;" vertex="1" parent="1">
          <mxGeometry x="450" y="660" width="40" height="20" as="geometry" />
        </mxCell>
        <mxCell id="6pSqtr_-12MOgZffBn_E-122" value="Search" style="text;html=1;align=center;verticalAlign=middle;whiteSpace=wrap;rounded=0;" vertex="1" parent="1">
          <mxGeometry x="490" y="660" width="50" height="20" as="geometry" />
        </mxCell>
        <mxCell id="6pSqtr_-12MOgZffBn_E-123" value="Language" style="text;html=1;align=center;verticalAlign=middle;whiteSpace=wrap;rounded=0;" vertex="1" parent="1">
          <mxGeometry x="540" y="660" width="70" height="20" as="geometry" />
        </mxCell>
        <mxCell id="6pSqtr_-12MOgZffBn_E-124" value="Notifications" style="text;html=1;align=center;verticalAlign=middle;whiteSpace=wrap;rounded=0;" vertex="1" parent="1">
          <mxGeometry x="610" y="660" width="70" height="20" as="geometry" />
        </mxCell>
        <mxCell id="6pSqtr_-12MOgZffBn_E-125" value="profile" style="text;html=1;align=center;verticalAlign=middle;whiteSpace=wrap;rounded=0;" vertex="1" parent="1">
          <mxGeometry x="680" y="660" width="50" height="20" as="geometry" />
        </mxCell>
        <mxCell id="6pSqtr_-12MOgZffBn_E-126" value="" style="endArrow=classic;html=1;rounded=0;" edge="1" parent="1" source="6pSqtr_-12MOgZffBn_E-121" target="6pSqtr_-12MOgZffBn_E-117">
          <mxGeometry width="50" height="50" relative="1" as="geometry">
            <mxPoint x="530" y="600" as="sourcePoint" />
            <mxPoint x="580" y="550" as="targetPoint" />
          </mxGeometry>
        </mxCell>
        <mxCell id="6pSqtr_-12MOgZffBn_E-127" value="" style="endArrow=classic;html=1;rounded=0;" edge="1" parent="1" source="6pSqtr_-12MOgZffBn_E-122" target="6pSqtr_-12MOgZffBn_E-115">
          <mxGeometry width="50" height="50" relative="1" as="geometry">
            <mxPoint x="479" y="670" as="sourcePoint" />
            <mxPoint x="476" y="605" as="targetPoint" />
          </mxGeometry>
        </mxCell>
        <mxCell id="6pSqtr_-12MOgZffBn_E-128" value="" style="endArrow=classic;html=1;rounded=0;" edge="1" parent="1" source="6pSqtr_-12MOgZffBn_E-123" target="6pSqtr_-12MOgZffBn_E-119">
          <mxGeometry width="50" height="50" relative="1" as="geometry">
            <mxPoint x="489" y="680" as="sourcePoint" />
            <mxPoint x="486" y="615" as="targetPoint" />
          </mxGeometry>
        </mxCell>
        <mxCell id="6pSqtr_-12MOgZffBn_E-129" value="" style="endArrow=classic;html=1;rounded=0;" edge="1" parent="1" source="6pSqtr_-12MOgZffBn_E-124" target="6pSqtr_-12MOgZffBn_E-120">
          <mxGeometry width="50" height="50" relative="1" as="geometry">
            <mxPoint x="499" y="690" as="sourcePoint" />
            <mxPoint x="496" y="625" as="targetPoint" />
          </mxGeometry>
        </mxCell>
        <mxCell id="6pSqtr_-12MOgZffBn_E-130" value="" style="endArrow=classic;html=1;rounded=0;" edge="1" parent="1" source="6pSqtr_-12MOgZffBn_E-125" target="6pSqtr_-12MOgZffBn_E-114">
          <mxGeometry width="50" height="50" relative="1" as="geometry">
            <mxPoint x="509" y="700" as="sourcePoint" />
            <mxPoint x="506" y="635" as="targetPoint" />
          </mxGeometry>
        </mxCell>
      </root>
    </mxGraphModel>
  </diagram>
</mxfile>
